ply
format ascii 1.0
element vertex 82
property float x
property float y
property float z
property uchar red
property uchar green
property uchar blue
end_header
-1.501787 0.825040 5.404772 128 128 128
-0.414185 0.542180 1.527411 128 128 128
-1.412951 0.700714 5.527772 128 128 128
-1.370980 0.613072 5.394221 128 128 128
-1.380677 0.709605 5.539275 128 128 128
-1.154385 0.409636 4.857641 128 128 128
-1.147160 0.965944 5.882701 128 128 128
-1.080431 0.996142 5.883474 128 128 128
-1.057459 1.039266 5.961214 128 128 128
-0.998719 0.931384 5.681559 128 128 128
-1.024799 1.169243 6.038221 128 128 128
-1.094318 1.794350 6.722026 128 128 128
-0.649844 1.420048 4.637315 128 128 128
-0.671787 1.504514 4.932194 128 128 128
-0.941406 1.700410 7.010903 128 128 128
-0.773250 1.895917 6.297404 128 128 128
-0.490258 2.286655 7.350877 128 128 128
-0.467003 2.163649 7.127965 128 128 128
-0.420281 2.228042 7.101796 128 128 128
-0.369217 2.191651 7.184508 128 128 128
0.197491 0.087676 3.936089 128 128 128
0.218357 0.145670 4.054546 128 128 128
0.227052 0.140496 3.990402 128 128 128
0.231187 0.115109 3.953503 128 128 128
0.298758 0.297929 4.073096 128 128 128
0.304564 0.279548 4.063767 128 128 128
0.315730 0.510826 4.100699 128 128 128
0.308491 0.241872 3.973360 128 128 128
0.324431 0.497342 4.123763 128 128 128
0.308282 0.288732 3.896466 128 128 128
0.318587 0.510571 4.005152 128 128 128
0.324610 0.512974 4.078686 128 128 128
0.336124 0.413352 3.996848 128 128 128
0.327519 0.182975 3.821809 128 128 128
0.354316 0.473723 3.865161 128 128 128
0.357189 0.477020 3.889320 128 128 128
0.360021 0.440406 3.923364 128 128 128
0.360021 0.440406 3.923364 128 128 128
0.358774 0.296414 3.884211 128 128 128
0.348329 0.170259 3.764713 128 128 128
0.348537 0.187861 3.740422 128 128 128
0.363551 0.419870 3.804862 128 128 128
0.363551 0.419870 3.804862 128 128 128
0.374956 0.386494 3.865546 128 128 128
0.377138 0.306584 3.832240 128 128 128
0.377138 0.306584 3.832240 128 128 128
0.364569 0.144684 3.669840 128 128 128
0.380283 0.245470 3.729630 128 128 128
0.374442 0.224295 3.635018 128 128 128
0.387550 0.196044 3.616281 128 128 128
0.387550 0.196044 3.616281 128 128 128
0.395603 0.176945 3.583899 128 128 128
0.394600 0.154912 3.553277 128 128 128
0.398895 0.214142 3.581623 128 128 128
0.398895 0.214142 3.581623 128 128 128
0.413401 0.211623 3.551061 128 128 128
0.414708 0.291854 3.546206 128 128 128
0.414368 0.193817 3.507035 128 128 128
0.407356 0.151497 3.441295 128 128 128
0.413321 0.204528 3.468339 128 128 128
0.420673 0.265914 3.521585 128 128 128
0.428127 0.303694 3.497859 128 128 128
0.419873 0.268124 3.417721 128 128 128
0.423730 0.231137 3.386006 128 128 128
0.427160 0.212351 3.393261 128 128 128
0.427160 0.212351 3.393261 128 128 128
0.432587 0.188379 3.416038 128 128 128
0.440883 0.247933 3.271675 128 128 128
0.445588 0.283399 3.165078 128 128 128
0.458183 0.159723 3.183959 128 128 128
0.454250 0.145613 2.956406 128 128 128
0.473559 0.160985 2.983229 128 128 128
0.477922 0.162851 3.007059 128 128 128
0.473115 0.149354 2.947371 128 128 128
0.474127 0.165267 2.932245 128 128 128
0.471175 0.153676 2.889037 128 128 128
0.481130 0.145455 2.826182 128 128 128
0.481130 0.145455 2.826182 128 128 128
0.481618 0.156061 2.746672 128 128 128
0.498782 0.136982 2.785693 128 128 128
0.489561 0.145601 2.697961 128 128 128
0.489561 0.145601 2.697961 128 128 128
